<svg width="98" height="96" xmlns="http://www.w3.org/2000/svg" xmlns:xlink="http://www.w3.org/1999/xlink" overflow="hidden"><defs><clipPath id="clip0"><rect x="226" y="96" width="98" height="96"/></clipPath><clipPath id="clip1"><rect x="227" y="96" width="96" height="96"/></clipPath><clipPath id="clip2"><rect x="227" y="96" width="96" height="96"/></clipPath><clipPath id="clip3"><rect x="227" y="96" width="96" height="96"/></clipPath></defs><g clip-path="url(#clip0)" transform="translate(-226 -96)"><g clip-path="url(#clip1)"><g clip-path="url(#clip2)"><g clip-path="url(#clip3)"><path d="M306.516 146.474C306.479 146.368 306.452 146.26 306.408 146.156 304.408 141.426 300.349 134.84 300.999 129.183L301.012 129.115C301.33 127.483 300.816 125.799 299.64 124.623L299.351 124.335C302.143 122.254 304.376 121.028 305.669 121.028 305.669 121.028 305.695 115.028 305.684 115.028 302.952 115.028 299.248 116.972 295.107 120.09L294.959 119.942 293.983 118.966C292.818 117.8 291.153 117.283 289.533 117.586L289.308 117.627C288.934 117.666 288.558 117.685 288.182 117.684 282.825 117.684 276.844 114.055 272.458 112.205 272.353 112.161 272.246 112.134 272.14 112.097 267.827 110.529 262.995 111.652 259.815 114.96L259.753 115.026C257.219 117.673 257.311 121.873 259.958 124.407 260.123 124.566 260.297 124.715 260.478 124.856L251.772 133.562C244.022 141.312 241.917 154.118 246.872 163.348 247.23 163.974 247.312 164.721 247.1 165.41 246.328 167.637 247.507 170.068 249.734 170.841 250.545 171.122 251.423 171.152 252.251 170.927 252.968 170.732 253.734 170.84 254.369 171.227 258.026 173.384 262.202 174.503 266.448 174.464 273.408 174.462 280.088 171.725 285.048 166.842L293.757 158.133C295.995 161.027 300.156 161.559 303.051 159.321 303.236 159.177 303.414 159.024 303.584 158.861L303.65 158.799C306.962 155.621 308.086 150.787 306.516 146.474ZM303.7 117.4 303.688 119.432C301.699 120.27 299.836 121.381 298.152 122.732L297.918 122.906 296.534 121.522C298.692 119.781 301.11 118.39 303.7 117.4ZM283.637 165.427C276.256 172.807 263.854 174.6 255.4 169.514 254.3 168.845 252.973 168.659 251.732 169 250.523 169.329 249.277 168.617 248.947 167.408 248.827 166.966 248.843 166.498 248.994 166.065 249.388 164.849 249.259 163.523 248.638 162.406 244.08 153.921 246.038 142.131 253.186 134.98L262.164 126C268.037 130.189 273.552 134.859 278.649 139.964 283.754 145.061 288.425 150.575 292.614 156.449ZM302.272 157.351 302.207 157.413C300.357 159.187 297.419 159.125 295.645 157.275 295.44 157.06 295.255 156.827 295.094 156.577 290.088 148.718 281.694 140.177 280.063 138.549 278.432 136.921 269.9 128.525 262.036 123.519 260.874 122.779 260.106 121.557 259.943 120.19 259.772 118.804 260.234 117.414 261.2 116.406L261.257 116.347C263.059 114.457 265.56 113.391 268.171 113.4 269.299 113.399 270.418 113.598 271.477 113.985 271.538 114.006 271.6 114.026 271.661 114.045L271.679 114.045C272.665 114.461 273.756 114.981 274.912 115.531 278.997 117.476 283.627 119.681 288.181 119.681 288.625 119.681 289.07 119.659 289.512 119.614L289.593 119.606 289.673 119.591 289.898 119.549C290.87 119.368 291.869 119.678 292.568 120.377L293.692 121.5 294.921 122.729 296.302 124.109 297.937 125.745 298.226 126.034C298.931 126.739 299.24 127.749 299.049 128.728L299.036 128.796 299.021 128.873 299.012 128.95C298.437 133.95 301.012 139.35 303.079 143.697 303.63 144.853 304.149 145.944 304.551 146.897L304.568 146.951C304.587 147.012 304.607 147.074 304.636 147.151 305.932 150.719 305.006 154.717 302.272 157.351Z" fill="#000000" fill-rule="nonzero" fill-opacity="1"/></g></g></g></g></svg>