<svg width="96" height="96" xmlns="http://www.w3.org/2000/svg" xmlns:xlink="http://www.w3.org/1999/xlink" overflow="hidden"><defs><clipPath id="clip0"><rect x="0" y="0" width="96" height="96"/></clipPath></defs><g clip-path="url(#clip0)"><path d="M44.858 44.186C45.474 44.186 46.039 44.175 46.577 44.169L46.66 44.269C47.7271 45.3586 48.3984 46.7742 48.567 48.29L48.567 58.137C48.0455 58.0496 47.5178 58.0038 46.989 58 45.8335 57.9963 44.6892 58.2252 43.624 58.673 42.4106 59.1835 41.3083 59.9256 40.379 60.858L36.933 64.3C33.0326 68.106 32.7189 74.2729 36.213 78.455 39.9114 82.7335 46.3779 83.2038 50.6564 79.5055 50.8436 79.3436 51.025 79.175 51.2 79L54.862 75.338C58.5615 71.6474 58.8799 65.7601 55.6 61.692 54.5534 60.3947 52.6534 60.1915 51.3561 61.2381 51.273 61.3051 51.1935 61.3765 51.118 61.452L50.567 62 50.567 48.253C50.6364 44.4568 52.5467 40.9312 55.689 38.8 56.875 38.856 58.329 38.943 59.927 38.943 64.382 38.943 69.94 38.267 73.827 34.371 80.427 27.571 78.827 15.171 78.827 15.171 77.7222 15.0497 76.6114 14.9926 75.5 15 71.354 15 64.278 15.726 59.833 20.171 55.233 24.887 54.617 32.612 54.604 37.12 52.0748 38.8672 50.1842 41.3914 49.219 44.31 48.9032 43.8491 48.5617 43.4064 48.196 42.984 48.08 42.846 47.963 42.704 47.846 42.56 48.092 38.867 48.46 32.86 44.433 28.271 41.223 24.611 35.881 23.926 32.333 23.926 31.1286 23.9185 29.9253 24.0004 28.733 24.171 28.733 24.171 27.377 34.686 32.833 39.871 36.964 43.8 41.449 44.186 44.858 44.186ZM61.244 21.586C65.233 17.6 71.886 17 75.5 17 76.049 17 76.544 17.014 76.968 17.033 77.117 20.412 76.924 28.315 72.418 32.958 69.704 35.677 65.736 36.943 59.931 36.943 59.305 36.943 58.704 36.928 58.131 36.908 61.693 32.753 64.6 30.108 67.192 28.673 67.6752 28.4054 67.8501 27.7967 67.5825 27.3135 67.3149 26.8302 66.7063 26.6554 66.223 26.923 63.433 28.468 60.365 31.239 56.661 35.551 56.9 29.179 58.429 24.47 61.244 21.585ZM52.53 62.866C52.9281 62.469 53.5727 62.4699 53.9697 62.868 53.9941 62.8925 54.0172 62.9182 54.039 62.945 56.6702 66.2203 56.4147 70.9511 53.446 73.924L49.784 77.586C46.5671 80.8041 41.3504 80.8051 38.1323 77.5881 37.9906 77.4465 37.854 77.2996 37.723 77.148 34.9227 73.7569 35.1942 68.7841 38.347 65.718L41.793 62.272C42.5401 61.5234 43.4255 60.927 44.4 60.516 45.2194 60.1712 46.1 59.9956 46.989 60 47.4837 60.0016 47.9771 60.0491 48.463 60.142L48.452 60.542 46.852 68.542ZM30.6 25.984C31.09 25.951 31.676 25.926 32.326 25.926 35.083 25.926 40.126 26.402 42.926 29.589 45.926 33.011 46.1 37.435 45.938 40.867 43.9699 37.6658 41.3794 34.892 38.32 32.71 37.8704 32.3891 37.2459 32.4934 36.925 32.943 36.6041 33.3926 36.7084 34.0171 37.158 34.338 40.081 36.4322 42.5454 39.1014 44.4 42.182 41.06 42.139 37.536 41.582 34.207 38.421 30.705 35.093 30.491 28.879 30.6 25.984Z" fill="#000000" fill-rule="nonzero" fill-opacity="1"/><path d="M81.565 53.992C81.444 53.992 81.322 53.992 81.2 54 80.4186 54.0272 79.6447 54.1618 78.9 54.4 72.1059 48.9912 62.2142 50.1102 56.8 56.9L56.4 57.6C56.7 57.9 57 58.1 57.3 58.4 62.381 63.4546 62.4024 71.6712 57.3478 76.7522 57.3319 76.7682 57.316 76.7841 57.3 76.8L53.3 80.8C50.8596 83.2932 47.5158 84.6952 44.027 84.688 36.854 84.7212 31.0122 78.9332 30.979 71.7602 30.9632 68.3357 32.3005 65.0434 34.7 62.6L34.9 62.4 35.4 61.9 37 60.2C38.6935 57.3805 37.8015 53.7232 35 52 34.0619 51.4426 32.9912 51.148 31.9 51.147 29.9457 51.1384 28.1128 52.0934 27 53.7 23.2905 50.0776 17.3546 50.1222 13.7 53.8 13.1789 54.3556 12.7103 54.9582 12.3 55.6 8.8715 55.8065 6.15247 58.5687 6 62L6 63 8 63 8 62.032C8.12451 59.6435 10.0289 57.7326 12.417 57.6L13.417 57.541 13.969 56.712C14.3065 56.1784 14.6914 55.6764 15.119 55.212 18 52.3074 22.685 52.2717 25.61 55.132L27.3 56.781 28.645 54.838C29.3871 53.7747 30.6034 53.1429 31.9 53.147 32.6259 53.1472 33.3385 53.3416 33.964 53.71 35.7722 54.8125 36.3974 57.1398 35.385 59L33.964 60.509 33.485 60.989 33.258 61.216C27.4678 67.1315 27.5693 76.6208 33.4848 82.411 36.3002 85.1668 40.0874 86.7033 44.027 86.688 48.048 86.7042 51.9038 85.09 54.714 82.214L58.714 78.214C64.4315 72.4836 64.5832 63.2542 59.057 57.339 63.9492 52.0987 72.0483 51.5008 77.657 55.966L78.457 56.605 79.445 56.323C80.0131 56.138 80.6033 56.0294 81.2 56L81.243 56 81.287 56C81.38 56 81.472 55.994 81.565 55.994 84.9665 56.0082 87.7773 58.6517 88 62.046L88 63 90 63 90 62C89.7595 57.5149 86.0565 53.9994 81.565 53.992Z" fill="#000000" fill-rule="nonzero" fill-opacity="1"/></g></svg>